<mxfile host="drawio-plugin" modified="2022-11-23T04:20:58.177Z" agent="5.0 (Windows NT 6.2; Win64; x64) AppleWebKit/537.36 (KHTML, like Gecko) Chrome/98.0.4758.102 Safari/537.36" version="20.5.3" etag="XGy8bHwpUumr5UXzbPWx" type="embed"><diagram id="oc7tQXaxBNSIIKsvNLDo" name="Page-1"><mxGraphModel dx="882" dy="735" grid="1" gridSize="10" guides="1" tooltips="1" connect="1" arrows="1" fold="1" page="1" pageScale="1" pageWidth="850" pageHeight="1100" math="0" shadow="0"><root><mxCell id="0"/><mxCell id="1" parent="0"/><mxCell id="2" value="t:TurnActionPanel" style="shape=umlLifeline;perimeter=lifelinePerimeter;whiteSpace=wrap;html=1;container=1;collapsible=0;recursiveResize=0;outlineConnect=0;" vertex="1" parent="1"><mxGeometry x="50" y="190" width="100" height="430" as="geometry"/></mxCell><mxCell id="3" value="" style="html=1;points=[];perimeter=orthogonalPerimeter;" vertex="1" parent="2"><mxGeometry x="45" y="70" width="10" height="40" as="geometry"/></mxCell><mxCell id="4" value="" style="endArrow=classic;html=1;rounded=0;exitX=1.2;exitY=0.275;exitDx=0;exitDy=0;exitPerimeter=0;" edge="1" parent="2" source="3"><mxGeometry width="50" height="50" relative="1" as="geometry"><mxPoint x="70" y="80" as="sourcePoint"/><mxPoint x="250" y="80" as="targetPoint"/><Array as="points"><mxPoint x="80" y="80"/></Array></mxGeometry></mxCell><mxCell id="5" value="actionPerformed(discardButton)" style="text;html=1;align=center;verticalAlign=middle;resizable=0;points=[];autosize=1;strokeColor=none;fillColor=none;" vertex="1" parent="1"><mxGeometry x="100" y="240" width="200" height="30" as="geometry"/></mxCell><mxCell id="6" value="tc:TurnActionController" style="shape=umlLifeline;perimeter=lifelinePerimeter;whiteSpace=wrap;html=1;container=1;collapsible=0;recursiveResize=0;outlineConnect=0;" vertex="1" parent="1"><mxGeometry x="240" y="180" width="140" height="460" as="geometry"/></mxCell><mxCell id="7" value="" style="html=1;points=[];perimeter=orthogonalPerimeter;" vertex="1" parent="6"><mxGeometry x="65" y="90" width="10" height="160" as="geometry"/></mxCell><mxCell id="8" value="" style="html=1;points=[];perimeter=orthogonalPerimeter;" vertex="1" parent="6"><mxGeometry x="70" y="120" width="10" height="40" as="geometry"/></mxCell><mxCell id="9" value="notifyControllerListener(DiscardClickEvent)" style="edgeStyle=orthogonalEdgeStyle;html=1;align=left;spacingLeft=2;endArrow=block;rounded=0;entryX=1;entryY=0;" edge="1" parent="6" target="8"><mxGeometry relative="1" as="geometry"><mxPoint x="75" y="100" as="sourcePoint"/><Array as="points"><mxPoint x="105" y="100"/></Array></mxGeometry></mxCell><mxCell id="10" value="handleControllerEvent(DiscardClickEvent)" style="html=1;verticalAlign=bottom;endArrow=block;rounded=0;" edge="1" parent="6" target="11"><mxGeometry x="0.0309" y="10" width="80" relative="1" as="geometry"><mxPoint x="75" y="200" as="sourcePoint"/><mxPoint x="155" y="200" as="targetPoint"/><mxPoint as="offset"/></mxGeometry></mxCell><mxCell id="11" value="m:ScrabbleModel" style="shape=umlLifeline;perimeter=lifelinePerimeter;whiteSpace=wrap;html=1;container=1;collapsible=0;recursiveResize=0;outlineConnect=0;" vertex="1" parent="1"><mxGeometry x="590" y="170" width="130" height="490" as="geometry"/></mxCell><mxCell id="12" value="" style="html=1;points=[];perimeter=orthogonalPerimeter;" vertex="1" parent="11"><mxGeometry x="60" y="200" width="10" height="130" as="geometry"/></mxCell><mxCell id="13" value="" style="html=1;points=[];perimeter=orthogonalPerimeter;" vertex="1" parent="11"><mxGeometry x="70.03" y="250" width="4.97" height="40" as="geometry"/></mxCell><mxCell id="14" value="handleDiscard()" style="edgeStyle=orthogonalEdgeStyle;html=1;align=left;spacingLeft=2;endArrow=block;rounded=0;entryX=1;entryY=0;" edge="1" parent="11" target="13"><mxGeometry relative="1" as="geometry"><mxPoint x="70.00000000000003" y="230" as="sourcePoint"/><Array as="points"><mxPoint x="100.00000000000003" y="230"/></Array></mxGeometry></mxCell><mxCell id="15" value="ref" style="shape=umlFrame;whiteSpace=wrap;html=1;" vertex="1" parent="1"><mxGeometry x="540" y="390" width="300" height="200" as="geometry"/></mxCell><mxCell id="16" value="Reference handleDiscard()" style="text;html=1;align=center;verticalAlign=middle;resizable=0;points=[];autosize=1;strokeColor=none;fillColor=none;" vertex="1" parent="1"><mxGeometry x="570" y="550" width="170" height="30" as="geometry"/></mxCell></root></mxGraphModel></diagram></mxfile>